<svg xmlns="http://www.w3.org/2000/svg" viewBox="0 0 100 100">
  <!-- Dark background circle -->
  <circle cx="50" cy="50" r="50" fill="#121212" />
  
  <!-- Outer glow effect -->
  <circle cx="50" cy="50" r="48" fill="url(#outerGlow)" />
  
  <!-- Blockchain layers -->
  <path d="M50 5L5 30l45 25 45-25L50 5z" fill="#6200EA" />
  <path d="M25 47.5L5 57.5l45 25 45-25-20-10" fill="#00E5FF" opacity="0.8" />
  <path d="M25 72.5L5 82.5l45 25 45-25-20-10" fill="#9D46FF" opacity="0.6" />
  
  <!-- Neural network elements -->
  <g opacity="0.8">
    <line x1="25" y1="30" x2="75" y2="30" stroke="#00E5FF" stroke-width="1" />
    <line x1="17" y1="50" x2="83" y2="50" stroke="#00E5FF" stroke-width="1" />
    <line x1="25" y1="70" x2="75" y2="70" stroke="#00E5FF" stroke-width="1" />
    
    <circle cx="25" cy="30" r="3" fill="#FFFFFF" />
    <circle cx="50" cy="30" r="3" fill="#FFFFFF" />
    <circle cx="75" cy="30" r="3" fill="#FFFFFF" />
    
    <circle cx="17" cy="50" r="3" fill="#FFFFFF" />
    <circle cx="50" cy="50" r="3" fill="#FFFFFF" />
    <circle cx="83" cy="50" r="3" fill="#FFFFFF" />
    
    <circle cx="25" cy="70" r="3" fill="#FFFFFF" />
    <circle cx="50" cy="70" r="3" fill="#FFFFFF" />
    <circle cx="75" cy="70" r="3" fill="#FFFFFF" />
    
    <line x1="25" y1="30" x2="17" y2="50" stroke="#9D46FF" stroke-width="1" />
    <line x1="25" y1="30" x2="50" y2="50" stroke="#9D46FF" stroke-width="1" />
    <line x1="50" y1="30" x2="17" y2="50" stroke="#9D46FF" stroke-width="1" />
    <line x1="50" y1="30" x2="50" y2="50" stroke="#9D46FF" stroke-width="1" />
    <line x1="50" y1="30" x2="83" y2="50" stroke="#9D46FF" stroke-width="1" />
    <line x1="75" y1="30" x2="50" y2="50" stroke="#9D46FF" stroke-width="1" />
    <line x1="75" y1="30" x2="83" y2="50" stroke="#9D46FF" stroke-width="1" />
    
    <line x1="17" y1="50" x2="25" y2="70" stroke="#9D46FF" stroke-width="1" />
    <line x1="17" y1="50" x2="50" y2="70" stroke="#9D46FF" stroke-width="1" />
    <line x1="50" y1="50" x2="25" y2="70" stroke="#9D46FF" stroke-width="1" />
    <line x1="50" y1="50" x2="50" y2="70" stroke="#9D46FF" stroke-width="1" />
    <line x1="50" y1="50" x2="75" y2="70" stroke="#9D46FF" stroke-width="1" />
    <line x1="83" y1="50" x2="50" y2="70" stroke="#9D46FF" stroke-width="1" />
    <line x1="83" y1="50" x2="75" y2="70" stroke="#9D46FF" stroke-width="1" />
  </g>
  
  <!-- Central "NYX" hub -->
  <circle cx="50" cy="50" r="15" fill="url(#centerGlow)" />
  
  <!-- Bioluminescent particles -->
  <circle cx="30" cy="25" r="2" fill="#00E5FF" opacity="0.8">
    <animate attributeName="opacity" values="0.3;0.8;0.3" dur="3s" repeatCount="indefinite" />
  </circle>
  <circle cx="70" cy="35" r="2" fill="#00E5FF" opacity="0.8">
    <animate attributeName="opacity" values="0.3;0.8;0.3" dur="4s" repeatCount="indefinite" />
  </circle>
  <circle cx="20" cy="60" r="2" fill="#00E5FF" opacity="0.8">
    <animate attributeName="opacity" values="0.3;0.8;0.3" dur="5s" repeatCount="indefinite" />
  </circle>
  <circle cx="80" cy="65" r="2" fill="#00E5FF" opacity="0.8">
    <animate attributeName="opacity" values="0.3;0.8;0.3" dur="4.5s" repeatCount="indefinite" />
  </circle>
  <circle cx="45" cy="85" r="2" fill="#00E5FF" opacity="0.8">
    <animate attributeName="opacity" values="0.3;0.8;0.3" dur="3.5s" repeatCount="indefinite" />
  </circle>
  
  <!-- Gradients -->
  <defs>
    <radialGradient id="outerGlow" cx="0.5" cy="0.5" r="0.5" fx="0.5" fy="0.5">
      <stop offset="70%" stop-color="#121212" stop-opacity="1" />
      <stop offset="100%" stop-color="#9D46FF" stop-opacity="0.3" />
    </radialGradient>
    <linearGradient id="centerGlow" x1="0" y1="0" x2="1" y2="1">
      <stop offset="0%" stop-color="#6200EA" />
      <stop offset="100%" stop-color="#00E5FF" />
    </linearGradient>
  </defs>
</svg>
